# xmcd
#
# Track frame offsets:
# 150
# 13127
# 22634
# 31796
# 42521
# 52165
# 62844
# 73293
# 86316
# 97776
# 108202
# 119869
# 131858
# 142881
# 152342
# 161872
# 173148
# 182540
# 193426
#
# Disc length: 2807 seconds
#
# Revision: 0
# Processed by: cddbd v1.4PL0 Copyright (c) Steve Scherf et al.
# Submitted via: Axialis_AX_CDPlayer 2.6
#
DISCID=050af513
DTITLE=Chet Atkins - Nashville Gold - Guitar Picker
DYEAR=1900
DGENRE=
TTITLE0=La fiesta
TTITLE1=Down home
TTITLE2=I love how you love me
TTITLE3=I got a woman
TTITLE4=Whispering
TTITLE5=Alley cat
TTITLE6=Arkansas Traveller
TTITLE7=Spansih harlem
TTITLE8=Django's Castle
TTITLE9=Kicky
TTITLE10=You're just in love
TTITLE11=Early time
TTITLE12=Walk don't run
TTITLE13=El combachero
TTITLE14=Anna
TTITLE15=Love letters
TTITLE16=Yankee doodle dixie
TTITLE17=Sahdow waltz
TTITLE18=Satan's doll
EXTD=
EXTT0=
EXTT1=
EXTT2=
EXTT3=
EXTT4=
EXTT5=
EXTT6=
EXTT7=
EXTT8=
EXTT9=
EXTT10=
EXTT11=
EXTT12=
EXTT13=
EXTT14=
EXTT15=
EXTT16=
EXTT17=
EXTT18=
PLAYORDER=
